<?xml version="1.0" encoding="UTF-8" standalone="no"?>
<svg width="708px" height="643px" viewBox="0 0 708 643" version="1.1" xmlns="http://www.w3.org/2000/svg" xmlns:xlink="http://www.w3.org/1999/xlink">
    <!-- Generator: Sketch 3.8.2 (29753) - http://www.bohemiancoding.com/sketch -->
    <title>Group Copy</title>
    <desc>Created with Sketch.</desc>
    <defs></defs>
    <g id="Page-1" stroke="none" stroke-width="1" fill="none" fill-rule="evenodd">
        <g id="Group-Copy" transform="translate(11.000000, 11.000000)">
            <path d="M339.5,430 C440.291967,430 522,368.5 522,368.5 C522,368.5 440.291967,406 339.5,406 C238.708033,406 157,368.5 157,368.5 C157,368.5 238.708033,430 339.5,430 Z" id="Oval-1" stroke="#000000" stroke-width="11" fill="#000000"></path>
            <circle id="Oval-4" fill="#FFFFFF" cx="365.5" cy="352.5" r="13.5"></circle>
            <path d="M342.919732,283 C325.482972,283.009474 305.298233,303.411837 291.680749,328.362676 C282.222077,345.693471 299.410128,364.193181 299.410128,380.603169 C299.410128,380.603169 331.953332,388.505314 342.907581,364.058692 L342.907581,364.800686 C353.90205,389.457208 386.429334,380.603169 386.429334,380.603169 C386.429334,364.193181 403.617385,345.693471 394.158713,328.362676 C380.541229,303.411837 360.35649,283.009474 342.919731,283 Z" id="Combined-Shape" fill="#D8D8D8" transform="translate(342.919731, 332.575063) scale(1, -1) translate(-342.919731, -332.575063) "></path>
            <path d="M157.301254,283.180671 C147.659579,283.18591 136.498406,294.467418 128.968605,308.264011 C123.738421,317.847092 133.242573,328.076527 133.242573,337.150447 C133.242573,337.150447 151.237371,341.519946 157.294535,328.002161 L157.294535,328.412447 C163.373938,342.046297 181.359934,337.150447 181.359934,337.150447 C181.359934,328.076527 190.864086,317.847092 185.633903,308.264011 C178.104101,294.467418 166.942928,283.18591 157.301253,283.180671 Z" id="Combined-Shape-Copy-4" fill="#D8D8D8" transform="translate(157.301254, 310.593255) scale(-1, -1) rotate(16.000000) translate(-157.301254, -310.593255) "></path>
            <path d="M528.301254,281.180671 C518.659579,281.18591 507.498406,292.467418 499.968605,306.264011 C494.738421,315.847092 504.242573,326.076527 504.242573,335.150447 C504.242573,335.150447 522.237371,339.519946 528.294535,326.002161 L528.294535,326.412447 C534.373938,340.046297 552.359934,335.150447 552.359934,335.150447 C552.359934,326.076527 561.864086,315.847092 556.633903,306.264011 C549.104101,292.467418 537.942928,281.18591 528.301253,281.180671 Z" id="Combined-Shape-Copy-7" fill="#D8D8D8" transform="translate(528.301254, 308.593255) scale(1, -1) rotate(16.000000) translate(-528.301254, -308.593255) "></path>
            <path d="M240.04463,291.520239 C227.973776,291.526797 214.000592,305.650635 204.573688,322.923222 C198.025782,334.920721 209.924464,347.727418 209.924464,359.087475 C209.924464,359.087475 232.452978,364.557852 240.036219,347.634316 L240.036219,348.147973 C247.647303,365.216814 270.164796,359.087475 270.164796,359.087475 C270.164796,347.727418 282.063478,334.920721 275.515572,322.923222 C266.088668,305.650635 252.115484,291.526797 240.04463,291.520239 Z" id="Combined-Shape-Copy-6" fill="#D8D8D8" transform="translate(240.044630, 325.839308) scale(1, -1) rotate(-15.000000) translate(-240.044630, -325.839308) "></path>
            <path d="M446.04463,288.520239 C433.973776,288.526797 420.000592,302.650635 410.573688,319.923222 C404.025782,331.920721 415.924464,344.727418 415.924464,356.087475 C415.924464,356.087475 438.452978,361.557852 446.036219,344.634316 L446.036219,345.147973 C453.647303,362.216814 476.164796,356.087475 476.164796,356.087475 C476.164796,344.727418 488.063478,331.920721 481.515572,319.923222 C472.088668,302.650635 458.115484,288.526797 446.04463,288.520239 Z" id="Combined-Shape-Copy-8" fill="#D8D8D8" transform="translate(446.044630, 322.839308) scale(-1, -1) rotate(-15.000000) translate(-446.044630, -322.839308) "></path>
            <path d="M342.568495,497.302726 C348.563435,497.302726 352,493.710061 352,479.819347 C352,465.928633 342.568495,447 342.568495,447 C342.568495,447 332,465.928633 332,479.819347 C332,493.710061 336.573556,497.302726 342.568495,497.302726 Z" id="Oval-8" fill="#D8D8D8"></path>
            <path d="M232.431199,477.723159 C238.329974,477.723159 241.711412,474.188124 241.711412,460.520232 C241.711412,446.852339 232.431199,428.227342 232.431199,428.227342 C232.431199,428.227342 222.032233,446.852339 222.032233,460.520232 C222.032233,474.188124 226.532424,477.723159 232.431199,477.723159 Z" id="Oval-8-Copy-2" fill="#D8D8D8" transform="translate(231.871823, 452.975250) rotate(42.000000) translate(-231.871823, -452.975250) "></path>
            <path d="M456.141054,477.723159 C462.039828,477.723159 465.421267,474.188124 465.421267,460.520232 C465.421267,446.852339 456.141054,428.227342 456.141054,428.227342 C456.141054,428.227342 445.742088,446.852339 445.742088,460.520232 C445.742088,474.188124 450.242279,477.723159 456.141054,477.723159 Z" id="Oval-8-Copy-3" fill="#D8D8D8" transform="translate(455.581677, 452.975250) scale(-1, 1) rotate(42.000000) translate(-455.581677, -452.975250) "></path>
            <path d="M342.849231,0 C453.497123,1.33754843e-14 736.936821,499.192909 678.034355,565.614875 C619.131889,632.036841 65.2381825,646.531785 7.66410635,565.614875 C-49.9099698,484.697965 232.201338,-1.26497055e-14 342.849231,0 Z" id="Triangle-1" stroke="#000000" stroke-width="21"></path>
        </g>
    </g>
</svg>