<?xml version="1.0" encoding="UTF-8" standalone="no"?>
<svg width="708px" height="643px" viewBox="0 0 708 643" version="1.1" xmlns="http://www.w3.org/2000/svg" xmlns:xlink="http://www.w3.org/1999/xlink">
    <!-- Generator: Sketch 3.8.2 (29753) - http://www.bohemiancoding.com/sketch -->
    <title>Group</title>
    <desc>Created with Sketch.</desc>
    <defs></defs>
    <g id="Page-1" stroke="none" stroke-width="1" fill="none" fill-rule="evenodd">
        <g id="Group" transform="translate(11.000000, 11.000000)">
            <path d="M227,343 C188.328801,352.821643 161,373.562234 161,373.562234 C161,373.562234 185.119301,391.867045 220.103291,402.227183 C217.890591,395.292136 216.695569,387.896847 216.695569,380.220128 C216.695569,366.593278 220.46101,353.853193 227,343 Z" id="Combined-Shape" fill="#D8D8D8"></path>
            <path d="M526,341 C487.328801,350.821643 460,371.562234 460,371.562234 C460,371.562234 484.119301,389.867045 519.103291,400.227183 C516.890591,393.292136 515.695569,385.896847 515.695569,378.220128 C515.695569,364.593278 519.46101,351.853193 526,341 Z" id="Combined-Shape-Copy" fill="#D8D8D8" transform="translate(493.000000, 370.613591) scale(-1, 1) translate(-493.000000, -370.613591) "></path>
            <path d="M343.5,434 C444.291967,434 526,372.5 526,372.5 C526,372.5 444.291967,311 343.5,311 C242.708033,311 161,372.5 161,372.5 C161,372.5 242.708033,434 343.5,434 Z" id="Oval-1" stroke="#000000" stroke-width="11"></path>
            <path d="M343.5,432 C376.360943,432 403,405.360943 403,372.5 C403,339.639057 376.360943,313 343.5,313 C310.639057,313 284,339.639057 284,372.5 C284,405.360943 310.639057,432 343.5,432 Z" id="Oval-2" stroke="#000000" stroke-width="11" fill="#000000"></path>
            <circle id="Oval-4" fill="#FFFFFF" cx="369.5" cy="356.5" r="13.5"></circle>
            <path d="M343.080269,171.849875 C325.64351,171.859349 305.458771,192.261712 291.841287,217.212551 C282.382615,234.543346 299.570666,253.043056 299.570666,269.453044 C299.570666,269.453044 332.11387,277.355189 343.068119,252.908567 L343.068119,253.650561 C354.062588,278.307082 386.589872,269.453044 386.589872,269.453044 C386.589872,253.043056 403.777923,234.543346 394.319251,217.212551 C380.701767,192.261712 360.517028,171.859349 343.080268,171.849875 Z" id="Combined-Shape" fill="#D8D8D8"></path>
            <path d="M459.581678,228.240811 C447.510823,228.24737 433.537639,242.371207 424.110735,259.643794 C417.562829,271.641293 429.461512,284.447991 429.461512,295.808047 C429.461512,295.808047 451.990025,301.278424 459.573267,284.354889 L459.573267,284.868545 C467.18435,301.937386 489.701843,295.808047 489.701843,295.808047 C489.701843,284.447991 501.600526,271.641293 495.05262,259.643794 C485.625715,242.371207 471.652532,228.24737 459.581677,228.240811 Z" id="Combined-Shape-Copy-2" fill="#D8D8D8" transform="translate(459.581677, 262.559881) rotate(30.000000) translate(-459.581677, -262.559881) "></path>
            <path d="M536.528762,284.883426 C526.887088,284.888664 515.725915,296.170173 508.196113,309.966766 C502.96593,319.549847 512.470081,329.779281 512.470081,338.853201 C512.470081,338.853201 530.46488,343.222701 536.522044,329.704915 L536.522044,330.115202 C542.601447,343.749051 560.587443,338.853201 560.587443,338.853201 C560.587443,329.779281 570.091594,319.549847 564.861411,309.966766 C557.331609,296.170173 546.170437,284.888664 536.528762,284.883426 Z" id="Combined-Shape-Copy-4" fill="#D8D8D8" transform="translate(536.528762, 312.296009) rotate(45.000000) translate(-536.528762, -312.296009) "></path>
            <path d="M153.528762,288.116179 C143.887088,288.121418 132.725915,299.402926 125.196113,313.199519 C119.96593,322.7826 129.470081,333.012034 129.470081,342.085954 C129.470081,342.085954 147.46488,346.455454 153.522044,332.937668 L153.522044,333.347955 C159.601447,346.981804 177.587443,342.085954 177.587443,342.085954 C177.587443,333.012034 187.091594,322.7826 181.861411,313.199519 C174.331609,299.402926 163.170437,288.121418 153.528762,288.116179 Z" id="Combined-Shape-Copy-5" fill="#D8D8D8" transform="translate(153.528762, 315.528762) scale(-1, 1) rotate(45.000000) translate(-153.528762, -315.528762) "></path>
            <path d="M226.581678,228.121049 C214.510823,228.127608 200.537639,242.251445 191.110735,259.524032 C184.562829,271.521531 196.461512,284.328229 196.461512,295.688285 C196.461512,295.688285 218.990025,301.158662 226.573267,284.235127 L226.573267,284.748783 C234.18435,301.817624 256.701843,295.688285 256.701843,295.688285 C256.701843,284.328229 268.600526,271.521531 262.05262,259.524032 C252.625715,242.251445 238.652532,228.127608 226.581677,228.121049 Z" id="Combined-Shape-Copy-3" fill="#D8D8D8" transform="translate(226.581677, 262.440119) scale(-1, 1) rotate(30.000000) translate(-226.581677, -262.440119) "></path>
            <path d="M346.568495,501.302726 C352.563435,501.302726 356,497.710061 356,483.819347 C356,469.928633 346.568495,451 346.568495,451 C346.568495,451 336,469.928633 336,483.819347 C336,497.710061 340.573556,501.302726 346.568495,501.302726 Z" id="Oval-8" fill="#D8D8D8"></path>
            <path d="M236.431199,481.723159 C242.329974,481.723159 245.711412,478.188124 245.711412,464.520232 C245.711412,450.852339 236.431199,432.227342 236.431199,432.227342 C236.431199,432.227342 226.032233,450.852339 226.032233,464.520232 C226.032233,478.188124 230.532424,481.723159 236.431199,481.723159 Z" id="Oval-8-Copy-2" fill="#D8D8D8" transform="translate(235.871823, 456.975250) rotate(42.000000) translate(-235.871823, -456.975250) "></path>
            <path d="M460.141054,481.723159 C466.039828,481.723159 469.421267,478.188124 469.421267,464.520232 C469.421267,450.852339 460.141054,432.227342 460.141054,432.227342 C460.141054,432.227342 449.742088,450.852339 449.742088,464.520232 C449.742088,478.188124 454.242279,481.723159 460.141054,481.723159 Z" id="Oval-8-Copy-3" fill="#D8D8D8" transform="translate(459.581677, 456.975250) scale(-1, 1) rotate(42.000000) translate(-459.581677, -456.975250) "></path>
            <path d="M342.849231,0 C453.497123,1.33754843e-14 736.936821,499.192909 678.034355,565.614875 C619.131889,632.036841 65.2381825,646.531785 7.66410635,565.614875 C-49.9099698,484.697965 232.201338,-1.26497055e-14 342.849231,0 Z" id="Triangle-1-Copy" stroke="#000000" stroke-width="21"></path>
        </g>
    </g>
</svg>