<?xml version="1.0" encoding="UTF-8" standalone="no"?>
<svg width="129px" height="129px" viewBox="0 0 129 129" version="1.1" xmlns="http://www.w3.org/2000/svg" xmlns:xlink="http://www.w3.org/1999/xlink">
    <!-- Generator: Sketch 3.8.2 (29753) - http://www.bohemiancoding.com/sketch -->
    <title>Facebook</title>
    <desc>Created with Sketch.</desc>
    <defs></defs>
    <g id="Page-1" stroke="none" stroke-width="1" fill="none" fill-rule="evenodd">
        <g id="Artboard-1-Copy" transform="translate(-313.000000, -512.000000)" fill="#857F7F">
            <path d="M381.90308,641 L320.11981,641 C316.186495,641 313,637.811527 313,633.879745 L313,519.119754 C313,515.186971 316.186996,512 320.11981,512 L434.880691,512 C438.812504,512 442,515.186971 442,519.119754 L442,633.879745 C442,637.812028 438.812003,641 434.880691,641 L402.008133,641 L402.008133,591.044091 L418.776026,591.044091 L421.28678,571.575386 L402.008133,571.575386 L402.008133,559.145849 C402.008133,553.50921 403.57335,549.668026 411.656216,549.668026 L421.965524,549.663521 L421.965524,532.250556 C420.182568,532.013297 414.062856,531.48322 406.943046,531.48322 C392.079242,531.48322 381.90308,540.556102 381.90308,557.217749 L381.90308,571.575386 L365.09214,571.575386 L365.09214,591.044091 L381.90308,591.044091 L381.90308,641 L381.90308,641 Z" id="Facebook"></path>
        </g>
    </g>
</svg>