<?xml version="1.0" encoding="UTF-8" standalone="no"?>
<svg width="150px" height="147px" viewBox="0 0 150 147" version="1.1" xmlns="http://www.w3.org/2000/svg" xmlns:xlink="http://www.w3.org/1999/xlink">
    <!-- Generator: Sketch 3.8.2 (29753) - http://www.bohemiancoding.com/sketch -->
    <title>Github</title>
    <desc>Created with Sketch.</desc>
    <defs></defs>
    <g id="Page-1" stroke="none" stroke-width="1" fill="none" fill-rule="evenodd">
        <g id="Artboard-1-Copy" transform="translate(-878.000000, -494.000000)" fill="#857F7F">
            <path d="M952.995312,494 C911.58125,494 878,527.709663 878,569.302012 C878,602.564597 899.4875,630.786969 929.295312,640.745038 C933.045313,641.436832 934.414062,639.112027 934.414062,637.116649 C934.414062,635.328338 934.348437,630.59402 934.310938,624.311401 C913.446875,628.862182 909.045312,614.216856 909.045312,614.216856 C905.6375,605.520017 900.720312,603.204625 900.720312,603.204625 C893.909375,598.531485 901.235937,598.625607 901.235937,598.625607 C908.759375,599.157394 912.720312,606.385936 912.720312,606.385936 C919.414062,617.892305 930.275,614.569812 934.55,612.640318 C935.229687,607.77423 937.170312,604.456442 939.3125,602.57401 C922.657812,600.672753 905.15,594.216009 905.15,565.363022 C905.15,557.141497 908.070312,550.421213 912.870312,545.155107 C912.096875,543.249144 909.523438,535.597056 913.601562,525.229558 C913.601562,525.229558 919.901562,523.205943 934.226562,532.947532 C940.2125,531.276873 946.625,530.443896 953.004688,530.410954 C959.375,530.443896 965.792187,531.276873 971.782812,532.947532 C986.098438,523.205943 992.384375,525.229558 992.384375,525.229558 C996.476562,535.597056 993.903125,543.249144 993.129688,545.155107 C997.939062,550.421213 1000.84062,557.141497 1000.84062,565.363022 C1000.84062,594.2866 983.304688,600.653928 966.598437,602.517537 C969.289062,604.842341 971.689062,609.435477 971.689062,616.461657 C971.689062,626.527965 971.595312,634.645956 971.595312,637.116649 C971.595312,639.130852 972.945312,641.47448 976.751563,640.735626 C1006.53125,630.758733 1028,602.555185 1028,569.302012 C1028,527.709663 994.41875,494 952.995312,494" id="Github"></path>
        </g>
    </g>
</svg>