<?xml version="1.0" encoding="UTF-8" standalone="no"?>
<svg width="150px" height="150px" viewBox="0 0 150 150" version="1.1" xmlns="http://www.w3.org/2000/svg" xmlns:xlink="http://www.w3.org/1999/xlink">
    <!-- Generator: Sketch 3.8.2 (29753) - http://www.bohemiancoding.com/sketch -->
    <title>Instagram</title>
    <desc>Created with Sketch.</desc>
    <defs></defs>
    <g id="Page-1" stroke="none" stroke-width="1" fill="none" fill-rule="evenodd">
        <g id="Artboard-1-Copy" transform="translate(-1075.000000, -497.000000)" fill="#857F7F">
            <path d="M1150.00015,497 C1129.63122,497 1127.07714,497.086337 1119.0776,497.451333 C1111.09472,497.815436 1105.6427,499.083395 1100.87215,500.937552 C1095.94024,502.85393 1091.75767,505.41843 1087.5879,509.5879 C1083.41843,513.757668 1080.85393,517.940237 1078.93755,522.87215 C1077.0834,527.642703 1075.81544,533.09472 1075.45133,541.077596 C1075.08634,549.077143 1075,551.631223 1075,572.000149 C1075,592.368777 1075.08634,594.922857 1075.45133,602.922404 C1075.81544,610.90528 1077.0834,616.357297 1078.93755,621.12785 C1080.85393,626.059763 1083.41843,630.242332 1087.5879,634.4121 C1091.75767,638.58157 1095.94024,641.14607 1100.87215,643.062746 C1105.6427,644.916605 1111.09472,646.184564 1119.0776,646.548667 C1127.07714,646.913663 1129.63122,647 1150.00015,647 C1170.36878,647 1172.92286,646.913663 1180.9224,646.548667 C1188.90528,646.184564 1194.3573,644.916605 1199.12785,643.062746 C1204.05976,641.14607 1208.24233,638.58157 1212.4121,634.4121 C1216.58157,630.242332 1219.14607,626.059763 1221.06275,621.12785 C1222.9166,616.357297 1224.18456,610.90528 1224.54867,602.922404 C1224.91366,594.922857 1225,592.368777 1225,572.000149 C1225,551.631223 1224.91366,549.077143 1224.54867,541.077596 C1224.18456,533.09472 1222.9166,527.642703 1221.06275,522.87215 C1219.14607,517.940237 1216.58157,513.757668 1212.4121,509.5879 C1208.24233,505.41843 1204.05976,502.85393 1199.12785,500.937552 C1194.3573,499.083395 1188.90528,497.815436 1180.9224,497.451333 C1172.92286,497.086337 1170.36878,497 1150.00015,497 Z M1150.00015,510.513489 C1170.02581,510.513489 1172.39799,510.590002 1180.30644,510.95083 C1187.61886,511.284268 1191.59006,512.506082 1194.23285,513.533192 C1197.73366,514.89374 1200.23207,516.518955 1202.85641,519.143593 C1205.48104,521.767933 1207.10626,524.26634 1208.46681,527.767147 C1209.49392,530.409945 1210.71573,534.381138 1211.04917,541.693564 C1211.41,549.602011 1211.48651,551.974188 1211.48651,572.000149 C1211.48651,592.025812 1211.41,594.397989 1211.04917,602.306436 C1210.71573,609.618862 1209.49392,613.590055 1208.46681,616.232853 C1207.10626,619.73366 1205.48104,622.232067 1202.85641,624.856407 C1200.23207,627.481045 1197.73366,629.10626 1194.23285,630.466808 C1191.59006,631.493918 1187.61886,632.715732 1180.30644,633.04917 C1172.39918,633.409998 1170.0273,633.486511 1150.00015,633.486511 C1129.9727,633.486511 1127.60112,633.409998 1119.69356,633.04917 C1112.38114,632.715732 1108.40994,631.493918 1105.76715,630.466808 C1102.26634,629.10626 1099.76793,627.481045 1097.14359,624.856407 C1094.51925,622.232067 1092.89374,619.73366 1091.53319,616.232853 C1090.50608,613.590055 1089.28427,609.618862 1088.95083,602.306436 C1088.59,594.397989 1088.51349,592.025812 1088.51349,572.000149 C1088.51349,551.974188 1088.59,549.602011 1088.95083,541.693564 C1089.28427,534.381138 1090.50608,530.409945 1091.53319,527.767147 C1092.89374,524.26634 1094.51896,521.767933 1097.14359,519.143593 C1099.76793,516.518955 1102.26634,514.89374 1105.76715,513.533192 C1108.40994,512.506082 1112.38114,511.284268 1119.69356,510.95083 C1127.60201,510.590002 1129.97419,510.513489 1150.00015,510.513489 Z M1150.00015,533.486511 C1128.72945,533.486511 1111.48651,550.72945 1111.48651,572.000149 C1111.48651,593.27055 1128.72945,610.513489 1150.00015,610.513489 C1171.27055,610.513489 1188.51349,593.27055 1188.51349,572.000149 C1188.51349,550.72945 1171.27055,533.486511 1150.00015,533.486511 Z M1150.00015,597 C1136.19282,597 1125,585.807183 1125,572.000149 C1125,558.192817 1136.19282,547 1150.00015,547 C1163.80718,547 1175,558.192817 1175,572.000149 C1175,585.807183 1163.80718,597 1150.00015,597 Z M1199.03526,531.9649 C1199.03526,536.935515 1195.00572,540.964763 1190.0351,540.964763 C1185.06478,540.964763 1181.03524,536.935515 1181.03524,531.9649 C1181.03524,526.994284 1185.06478,522.964739 1190.0351,522.964739 C1195.00572,522.964739 1199.03526,526.994284 1199.03526,531.9649 Z" id="Instagram"></path>
        </g>
    </g>
</svg>