<?xml version="1.0" encoding="UTF-8" standalone="no"?>
<svg width="150px" height="137px" viewBox="0 0 150 137" version="1.1" xmlns="http://www.w3.org/2000/svg" xmlns:xlink="http://www.w3.org/1999/xlink">
    <!-- Generator: Sketch 3.8.2 (29753) - http://www.bohemiancoding.com/sketch -->
    <title>LinkedIn</title>
    <desc>Created with Sketch.</desc>
    <defs></defs>
    <g id="Page-1" stroke="none" stroke-width="1" fill="none" fill-rule="evenodd">
        <g id="Artboard-1-Copy" transform="translate(-501.000000, -497.000000)" fill="#857F7F">
            <path d="M651,633.363636 L617.847954,633.363636 L617.847954,585.426365 C617.847954,572.87885 612.662159,564.31301 601.258702,564.31301 C592.536336,564.31301 587.685677,570.093424 585.427916,575.664276 C584.581256,577.663845 584.713547,580.449271 584.713547,583.234698 L584.713547,633.363636 L551.870179,633.363636 C551.870179,633.363636 552.293509,548.447432 551.870179,540.728571 L584.713547,540.728571 L584.713547,555.266924 C586.65381,548.910214 597.148871,539.837933 613.896872,539.837933 C634.675329,539.837933 651,553.162573 651,581.855082 L651,633.363636 L651,633.363636 Z M518.656397,529.141547 L518.444732,529.141547 C507.861477,529.141547 501,522.060104 501,513.083871 C501,503.933004 508.064323,497 518.859243,497 C529.645343,497 536.277516,503.915541 536.489182,513.057676 C536.489182,522.033908 529.645343,529.141547 518.656397,529.141547 L518.656397,529.141547 L518.656397,529.141547 Z M504.783514,540.728571 L534.019755,540.728571 L534.019755,633.363636 L504.783514,633.363636 L504.783514,540.728571 L504.783514,540.728571 Z" id="LinkedIn"></path>
        </g>
    </g>
</svg>