<?xml version="1.0" encoding="UTF-8" standalone="no"?>
<svg width="149px" height="129px" viewBox="0 0 149 129" version="1.1" xmlns="http://www.w3.org/2000/svg" xmlns:xlink="http://www.w3.org/1999/xlink">
    <!-- Generator: Sketch 3.8.2 (29753) - http://www.bohemiancoding.com/sketch -->
    <title>Medium</title>
    <desc>Created with Sketch.</desc>
    <defs></defs>
    <g id="Page-1" stroke="none" stroke-width="1" fill="none" fill-rule="evenodd">
        <g id="Artboard-1-Copy" transform="translate(-678.000000, -508.000000)">
            <g id="Medium" transform="translate(678.000000, 508.000000)">
                <path d="M103.706604,0.533719445 C101.450943,-0.627988412 99.6056604,0.546837853 99.6056604,3.14428252 L99.6056604,104.177984 L140.76934,127.672951 C145.299057,130.005113 148.971226,128.3726 148.971226,124.026034 L148.971226,24.5243714 C148.971226,24.1089552 148.741981,23.7270638 148.381132,23.5404909 L103.706604,0.533719445 L103.20556,118.598151" id="Fill-1" fill="#B5B5B5"></path>
                <path d="M97.2028302,2.38819444 C98.5245283,0.227152778 101.450943,-0.611354167 103.706604,0.523263889 L148.432075,23.0191667 C148.72217,23.1657986 148.825472,23.5302431 148.65566,23.8078472 L99.6056604,103.991319 L50.2415094,79.1606944 L97.2028302,2.38819444 Z" id="Fill-2" fill="#969696"></path>
                <path d="M4.88066038,5.00763889 L50.2415094,79.1606944 L99.6056604,103.991319 L50.3476415,23.4647569 C50.2783019,23.3508681 50.1778302,23.2597569 50.0589623,23.1999653 L7.71084906,1.89847222 C3.9509434,0.00649305556 2.67735849,1.40590278 4.88066038,5.00763889 Z" id="Fill-3" fill="#818181"></path>
                <path d="M50.2415094,121.135868 C50.2415094,125.363993 47.1650943,127.275903 43.4066038,125.385347 L4.97688679,106.054132 C2.72122642,104.919514 0.875943396,101.915694 0.875943396,99.3788194 L0.875943396,4.61045139 C0.875943396,1.22795139 3.33679245,-0.302430556 6.34386792,1.21086806 L49.9754717,23.1572569 C50.1382075,23.2398264 50.2415094,23.4063889 50.2415094,23.5886111 L50.2415094,121.135868" id="Fill-4" fill="#6F6F6F"></path>
            </g>
        </g>
    </g>
</svg>